<svg xmlns="http://www.w3.org/2000/svg" xmlns:xlink="http://www.w3.org/1999/xlink" xmlns:inkscape="http://www.inkscape.org/namespaces/inkscape" version="1.1" width="278.9230041503906pt" height="116.05799865722656pt" viewBox="0 0 278.923 116.058">
<defs>
<path id="font_1_1" d="M.47399903 .40820313C.44198609 .40219117 .42999269 .3781891 .42999269 .3591919 .42999269 .33518983 .44898988 .3271942 .46299745 .3271942 .49299623 .3271942 .5139923 .3531952 .5139923 .380188 .5139923 .4223938 .46598817 .44140626 .42399598 .44140626 .36299134 .44140626 .32899476 .38119508 .31999208 .36219789 .29699708 .4373932 .23498535 .44140626 .21699524 .44140626 .114990238 .44140626 .06098938 .31021119 .06098938 .28822328 .06098938 .28422547 .06498718 .27923585 .07199097 .27923585 .07998657 .27923585 .08198547 .28523255 .083999637 .2892151 .117996219 .40019227 .18499756 .42140199 .21398926 .42140199 .25898744 .42140199 .2679901 .37919618 .2679901 .3551941 .2679901 .33319093 .2619934 .31021119 .25 .26223756L.21598816 .12535095C.20098877 .06535339 .17199707 .010223389 .11898804 .010223389 .11399841 .010223389 .08898926 .010223389 .067993167 .023330689 .10398865 .03036499 .11199951 .06036377 .11199951 .07235718 .11199951 .09236145 .09700012 .10435486 .07798767 .10435486 .053985597 .10435486 .027999878 .083358768 .027999878 .051361085 .027999878 .009231567 .07499695-.009765625 .117996219-.009765625 .1659851-.009765625 .19999695 .028366089 .22099304 .069366458 .23699951 .010223389 .2869873-.009765625 .32398988-.009765625 .42599488-.009765625 .47999574 .12135315 .47999574 .1433258 .47999574 .14833069 .47599793 .15232849 .46998597 .15232849 .46099855 .15232849 .45999146 .14732361 .45700074 .139328 .42999269 .051361085 .37199403 .010223389 .32699586 .010223389 .2919922 .010223389 .272995 .036361696 .272995 .07736206 .272995 .099365238 .2769928 .115356449 .29299928 .18130493L.32798768 .3171997C.34298707 .37719728 .3769989 .42140199 .4229889 .42140199 .4249878 .42140199 .45298768 .42140199 .47399903 .40820313Z"/>
<path id="font_1_2" d="M.2630005-.11172485C.23599243-.14982605 .19699097-.18411255 .147995-.18411255 .13598633-.18411255 .08799744-.18209839 .07299805-.13572693 .07598877-.13671875 .08099365-.13671875 .08299255-.13671875 .11299133-.13671875 .1329956-.11073303 .1329956-.08772278 .1329956-.06472778 .11399841-.056732179 .09899902-.056732179 .08299255-.056732179 .04798889-.068725589 .04798889-.11772156 .04798889-.16899109 .09098816-.20410156 .147995-.20410156 .24798584-.20410156 .34899903-.11172485 .3769989-.00077819827L.47499085 .38868714C.47599793 .39367677 .47799684 .39967347 .47799684 .4056549 .47799684 .4206543 .46598817 .43066407 .45098878 .43066407 .44198609 .43066407 .42099 .426651 .41299439 .39666749L.33898927 .10308838C.33399964 .085113529 .33399964 .08312988 .32598878 .072143558 .30599977 .04423523 .272995 .010223389 .22499085 .010223389 .16899109 .010223389 .1639862 .06524658 .1639862 .09225464 .1639862 .14929199 .19099427 .22631836 .21798706 .2983551 .22898865 .32736207 .23498535 .34136964 .23498535 .3613739 .23498535 .4033966 .20498657 .44140626 .1559906 .44140626 .06399536 .44140626 .026992798 .29634095 .026992798 .28834535 .026992798 .28434754 .0309906 .27934266 .037994386 .27934266 .04699707 .27934266 .04798889 .28334046 .051986696 .29734803 .07598877 .38137818 .11399841 .42140199 .15299988 .42140199 .1619873 .42140199 .1789856 .42140199 .1789856 .38838197 .1789856 .36238099 .16799927 .33335877 .15299988 .29534913 .10398865 .16429138 .10398865 .13127136 .10398865 .10726929 .10398865 .01222229 .17199707-.009765625 .22200012-.009765625 .25099183-.009765625 .2869873-.00077819827 .32199098 .036239625L.32299806 .035232545C.30799867-.023757935 .2979889-.06272888 .2630005-.11172485Z"/>
<path id="font_2_2" d="M.25299073 .47503663C.2579956 .4870453 .2619934 .49604798 .2619934 .5060425 .2619934 .53504946 .23599243 .5590515 .20498657 .5590515 .1769867 .5590515 .15899658 .5400543 .1519928 .51405337L.032989503 .076919559C.032989503 .074920658 .0289917 .06391907 .0289917 .06291199 .0289917 .0519104 .054992677 .044921876 .06298828 .044921876 .068984989 .044921876 .069992069 .047912599 .07598877 .060913087L.25299073 .47503663Z"/>
<path id="font_2_1" d="M.6589966 .23046875C.6759949 .23046875 .69400027 .23046875 .69400027 .25045777 .69400027 .27046205 .6759949 .27046205 .6589966 .27046205H.117996219C.100997928 .27046205 .08299255 .27046205 .08299255 .25045777 .08299255 .23046875 .100997928 .23046875 .117996219 .23046875H.6589966Z"/>
<path id="font_2_3" d="M.5079956 .2711792C.45399476 .33917237 .44198609 .3541565 .41099549 .3791504 .35499574 .42414857 .29899598 .44215394 .24798584 .44215394 .1309967 .44215394 .054992677 .33216859 .054992677 .2151947 .054992677 .100234989 .1289978-.0107421879 .24398804-.0107421879 .35899354-.0107421879 .44198609 .08023071 .4909973 .16021729 .54499819 .09222412 .5569916 .07723999 .58799746 .052246095 .6439972 .007247925 .69999697-.0107421879 .7509918-.0107421879 .8679962-.0107421879 .94400027 .099227908 .94400027 .21620178 .94400027 .3311615 .8699951 .44215394 .7549896 .44215394 .6399994 .44215394 .5569916 .35116578 .5079956 .2711792M.5339966 .23719788C.57499697 .30917359 .6489868 .41015626 .7619934 .41015626 .8679962 .41015626 .9219971 .3061676 .9219971 .21620178 .9219971 .1182251 .8549957 .037246705 .7669983 .037246705 .70899966 .037246705 .6639862 .07923889 .6429901 .100234989 .6179962 .12722779 .59498599 .15821839 .5339966 .23719788M.46499635 .19419861C.42399598 .1222229 .34999085 .021255494 .23699951 .021255494 .1309967 .021255494 .07699585 .12522888 .07699585 .2151947 .07699585 .3131714 .14399719 .39414979 .23199463 .39414979 .2899933 .39414979 .33499146 .3521576 .35598756 .3311615 .3809967 .3041687 .4039917 .2731781 .46499635 .19419861Z"/>
<path id="font_3_4" d="M.2939911 .16503906V.07800293C.2939911 .041992189 .2919922 .0309906 .21798706 .0309906H.19699097V0C.23799134 .0029907227 .2899933 .0029907227 .33198548 .0029907227 .37399293 .0029907227 .4269867 .0029907227 .46798707 0V.0309906H.44699098C.37298585 .0309906 .37098695 .041992189 .37098695 .07800293V.16503906H.47099305V.19602967H.37098695V.65075686C.37098695 .67074587 .37098695 .6767578 .35499574 .6767578 .34599305 .6767578 .34298707 .6767578 .33499146 .66474917L.027999878 .19602967V.16503906H.2939911M.2999878 .19602967H.055999757L.2999878 .5688019V.19602967Z"/>
<path id="font_3_3" d="M.2899933 .35191346C.37199403 .37893678 .42999269 .4490509 .42999269 .52809146 .42999269 .6100464 .34199525 .6660156 .24598694 .6660156 .14498902 .6660156 .068984989 .60606387 .068984989 .53009036 .068984989 .49710084 .09098816 .47808839 .11999512 .47808839 .15098572 .47808839 .17098999 .50009158 .17098999 .5290985 .17098999 .57910159 .12399292 .57910159 .10899353 .57910159 .13999939 .62802127 .20599365 .64100649 .24198914 .64100649 .2829895 .64100649 .33799745 .6190338 .33799745 .5290985 .33799745 .51708987 .33599855 .45906068 .30999757 .4149933 .27999879 .36691285 .24598694 .36390687 .22099304 .36291505 .21299744 .36190797 .18899536 .35990907 .18199158 .35990907 .17399597 .35890199 .16699219 .35791017 .16699219 .3479004 .16699219 .33691407 .17399597 .33691407 .19099427 .33691407H.23498535C.31698609 .33691407 .35398866 .2686615 .35398866 .17037964 .35398866 .034469606 .2849884 .0055389406 .24099732 .0055389406 .19799805 .0055389406 .12298584 .022491456 .08799744 .08137512 .12298584 .07637024 .1539917 .09837341 .1539917 .1363678 .1539917 .17237854 .1269989 .19238281 .09799194 .19238281 .07398987 .19238281 .041992189 .17837525 .041992189 .1343689 .041992189 .043441774 .1349945-.022460938 .24398804-.022460938 .3659973-.022460938 .45700074 .06838989 .45700074 .17037964 .45700074 .252594 .3939972 .33088685 .2899933 .35191346Z"/>
<path id="font_3_1" d="M.2939911 .64004519C.2939911 .66400149 .2939911 .6660156 .2709961 .6660156 .20899964 .60227969 .12098694 .60227969 .08898926 .60227969V.57128909C.10899353 .57128909 .16799927 .57128909 .21998596 .5972748V.07902527C.21998596 .042999269 .21699524 .0309906 .1269989 .0309906H.09498596V0C.12998963 .0029907227 .21699524 .0029907227 .25698854 .0029907227 .29699708 .0029907227 .38398744 .0029907227 .4189911 0V.0309906H.3869934C.29699708 .0309906 .2939911 .041992189 .2939911 .07902527V.64004519Z"/>
<path id="font_3_2" d="M.1269989 .07699585 .23298645 .18003845C.3889923 .31811524 .44898988 .3721466 .44898988 .47216798 .44898988 .5860901 .35899354 .6660156 .23699951 .6660156 .12399292 .6660156 .049987794 .57411196 .049987794 .48516847 .049987794 .4291687 .099990848 .4291687 .102996829 .4291687 .11999512 .4291687 .15499878 .44117738 .15499878 .48217774 .15499878 .5081787 .13699341 .5341797 .101989749 .5341797 .09399414 .5341797 .09199524 .5341797 .08898926 .5331726 .11199951 .59806826 .1659851 .63500979 .22399903 .63500979 .31498719 .63500979 .35798646 .5541382 .35798646 .47216798 .35798646 .39215089 .30799867 .31311036 .25299073 .25108338L.06098938 .036987306C.049987794 .025985718 .049987794 .023986817 .049987794 0H.42099L.44898988 .17404175H.42399598C.4189911 .14402771 .4119873 .1000061 .4019928 .084991458 .394989 .07699585 .32899476 .07699585 .30699159 .07699585H.1269989Z"/>
<path id="font_4_1" d="M.39898683 .23057556H.6749878C.68899539 .23057556 .70700076 .23057556 .70700076 .24856568 .70700076 .26757813 .6899872 .26757813 .6749878 .26757813H.39898683V.5441437C.39898683 .5581665 .39898683 .5761719 .3809967 .5761719 .3619995 .5761719 .3619995 .5591583 .3619995 .5441437V.26757813H.085998538C.07199097 .26757813 .053985597 .26757813 .053985597 .24957276 .053985597 .23057556 .070999149 .23057556 .085998538 .23057556H.3619995V-.045166017C.3619995-.059158327 .3619995-.07714844 .37998963-.07714844 .39898683-.07714844 .39898683-.060150148 .39898683-.045166017V.23057556Z"/>
<path id="font_4_2" d="M.44799806 .31976319C.44799806 .40283204 .44299317 .48390199 .40699769 .55996707 .3659973 .64302065 .2939911 .66503909 .24499512 .66503909 .18699646 .66503909 .115997318 .63601687 .07899475 .552948 .050994874 .48989869 .040985109 .42785646 .040985109 .31976319 .040985109 .22268677 .04798889 .14962769 .083999637 .078567508 .12298584 .0025177003 .19198609-.021484375 .24398804-.021484375 .33099366-.021484375 .3809967 .030532837 .4099884 .08857727 .44599916 .16363526 .44799806 .26171876 .44799806 .31976319M.24398804-.0014953613C.21199036-.0014953613 .14698792 .016525269 .12799073 .12561035 .116989139 .18565369 .116989139 .26171876 .116989139 .33177186 .116989139 .41384889 .116989139 .48789979 .1329956 .5469513 .1499939 .6139984 .20098877 .6450348 .24398804 .6450348 .28199769 .6450348 .33999635 .6220093 .35899354 .53593447 .37199403 .4788971 .37199403 .39982606 .37199403 .33177186 .37199403 .26472474 .37199403 .18865967 .36099244 .12760926 .34199525 .01751709 .2789917-.0014953613 .24398804-.0014953613Z"/>
<path id="font_3_6" d="M.16299439 .4569702C.116989139 .486969 .11299133 .52098086 .11299133 .5379791 .11299133 .598999 .17799378 .64100649 .24899292 .64100649 .32199098 .64100649 .38598634 .58898928 .38598634 .51698306 .38598634 .45996095 .34700013 .4119568 .2869873 .37695313L.16299439 .4569702M.30899049 .36193849C.3809967 .3989563 .42999269 .45095826 .42999269 .51698306 .42999269 .6090088 .34098817 .6660156 .25 .6660156 .1499939 .6660156 .068984989 .59199526 .068984989 .49897767 .068984989 .4809723 .070999149 .43595887 .11299133 .38894654 .12399292 .37695313 .16099549 .35194398 .18598938 .33494569 .12799073 .30592347 .041992189 .24984741 .041992189 .15072632 .041992189 .04458618 .14399719-.022460938 .24899292-.022460938 .3619995-.022460938 .45700074 .06060791 .45700074 .16773987 .45700074 .20379639 .44599916 .24885559 .4079895 .2909088 .3889923 .31193543 .37298585 .3219452 .30899049 .36193849M.20899964 .3199463 .33198548 .24183655C.3600006 .2228241 .40699769 .19277954 .40699769 .13169861 .40699769 .05760193 .33198548 .0055389406 .25 .0055389406 .1639862 .0055389406 .09199524 .067611698 .09199524 .15072632 .09199524 .20880127 .12399292 .27288819 .20899964 .3199463Z"/>
<path id="font_3_5" d="M.47599793 .609375C.4850006 .6213684 .4850006 .62338259 .4850006 .64437869H.24198914C.11999512 .64437869 .117996219 .65737918 .11399841 .67637637H.08898926L.055999757 .4702301H.08099365C.083999637 .48625184 .09298706 .5493469 .10598755 .56137087 .11299133 .5673828 .19099427 .5673828 .20399475 .5673828H.41099549C.3999939 .5513611 .32099916 .4421997 .29899598 .40914918 .20899964 .27394105 .17599488 .1347351 .17599488 .032577516 .17599488 .022567749 .17599488-.022460938 .22200012-.022460938 .2679901-.022460938 .2679901 .022567749 .2679901 .032577516V.08366394C.2679901 .13873291 .2709961 .19381714 .2789917 .24790955 .2829895 .27093507 .29699708 .35707093 .34098817 .41915895L.47599793 .609375Z"/>
</defs>
<path transform="matrix(1,0,0,-1,0,116.058)" d="M0 0H278.923V116.058H0Z" fill="#ffffff"/>
<use data-text="x" xlink:href="#font_1_1" transform="matrix(14.3462,0,0,-14.3462,19.194,22.255997)"/>
<use data-text="y" xlink:href="#font_1_2" transform="matrix(14.3462,0,0,-14.3462,17.885,45.822)"/>
<use data-text="&#x2032;" xlink:href="#font_2_2" transform="matrix(9.9626,0,0,-9.9626,25.249,40.614999)"/>
<use data-text="y" xlink:href="#font_1_2" transform="matrix(14.3462,0,0,-14.3462,19.504,83.227)"/>
<path transform="matrix(1,0,0,-1,6.177,7.8279955)" stroke-width=".3985" stroke-linecap="butt" stroke-miterlimit="10" stroke-linejoin="miter" fill="none" stroke="#000000" d="M0-22.6787H260.80534"/>
<path transform="matrix(1,0,0,-1,6.177,7.8279955)" stroke-width=".3985" stroke-linecap="butt" stroke-miterlimit="10" stroke-linejoin="miter" fill="none" stroke="#000000" d="M0-45.35742H260.80534"/>
<path transform="matrix(1,0,0,-1,6.177,7.8279955)" stroke-width=".3985" stroke-linecap="butt" stroke-miterlimit="10" stroke-linejoin="miter" fill="none" stroke="#000000" d="M0-102.05423H260.80534"/>
<path transform="matrix(1,0,0,-1,6.177,7.8279955)" stroke-width=".3985" stroke-linecap="butt" stroke-miterlimit="10" stroke-linejoin="miter" fill="none" stroke="#000000" d="M0 0V-102.05423H260.80534V0ZM260.80534-102.05423"/>
<path transform="matrix(1,0,0,-1,6.177,7.8279955)" stroke-width=".3985" stroke-linecap="butt" stroke-miterlimit="10" stroke-linejoin="miter" fill="none" stroke="#000000" d="M34.01805 0V-102.05423"/>
<use data-text="&#x2212;" xlink:href="#font_2_1" transform="matrix(14.3462,0,0,-14.3462,38.78,22.753998)"/>
<use data-text="&#x221e;" xlink:href="#font_2_3" transform="matrix(14.3462,0,0,-14.3462,49.941347,22.753998)"/>
<use data-text="&#x2212;" xlink:href="#font_2_1" transform="matrix(14.3462,0,0,-14.3462,110.299,22.727997)"/>
<use data-text="4" xlink:href="#font_3_4" transform="matrix(9.9626,0,0,-9.9626,122.652,17.079995)"/>
<path transform="matrix(1,0,0,-1,122.652,19.141999)" stroke-width=".558" stroke-linecap="butt" stroke-miterlimit="10" stroke-linejoin="miter" fill="none" stroke="#000000" d="M0 0H4.981"/>
<use data-text="3" xlink:href="#font_3_3" transform="matrix(9.9626,0,0,-9.9626,122.652,27.674996)"/>
<use data-text="1" xlink:href="#font_3_1" transform="matrix(9.9626,0,0,-9.9626,185.105,17.080002)"/>
<path transform="matrix(1,0,0,-1,185.105,19.141999)" stroke-width=".558" stroke-linecap="butt" stroke-miterlimit="10" stroke-linejoin="miter" fill="none" stroke="#000000" d="M0 0H4.981"/>
<use data-text="2" xlink:href="#font_3_2" transform="matrix(9.9626,0,0,-9.9626,185.105,27.674996)"/>
<use data-text="+" xlink:href="#font_4_1" transform="matrix(14.3462,0,0,-14.3462,242.992,22.753998)"/>
<use data-text="&#x221e;" xlink:href="#font_2_3" transform="matrix(14.3462,0,0,-14.3462,253.92382,22.753998)"/>
<use data-text="+" xlink:href="#font_4_1" transform="matrix(14.3462,0,0,-14.3462,80.097,45.435998)"/>
<use data-text="0" xlink:href="#font_4_2" transform="matrix(14.3462,0,0,-14.3462,116.063,46.469995)"/>
<use data-text="&#x2212;" xlink:href="#font_2_1" transform="matrix(14.3462,0,0,-14.3462,148.023,45.435998)"/>
<use data-text="0" xlink:href="#font_4_2" transform="matrix(14.3462,0,0,-14.3462,184.102,46.469995)"/>
<use data-text="+" xlink:href="#font_4_1" transform="matrix(14.3462,0,0,-14.3462,216.182,45.435998)"/>
<path transform="matrix(1,0,0,-1,6.177,7.8279955)" d="M30.6125-98.06912H60.102319V-84.51979H30.6125Z" fill="#ffffff"/>
<use data-text="&#x2212;" xlink:href="#font_2_1" transform="matrix(14.3462,0,0,-14.3462,38.781999,102.70799)"/>
<use data-text="&#x221e;" xlink:href="#font_2_3" transform="matrix(14.3462,0,0,-14.3462,49.94334,102.70799)"/>
<path transform="matrix(1,0,0,-1,6.177,7.8279955)" d="M30.6125-98.06912H60.102319V-84.51979H30.6125Z" fill="#ffffff"/>
<use data-text="&#x2212;" xlink:href="#font_2_1" transform="matrix(14.3462,0,0,-14.3462,38.781999,102.70799)"/>
<use data-text="&#x221e;" xlink:href="#font_2_3" transform="matrix(14.3462,0,0,-14.3462,49.94334,102.70799)"/>
<path transform="matrix(1,0,0,-1,6.177,7.8279955)" d="M102.73344-70.3439H124.05377V-49.342535H102.73344Z" fill="#ffffff"/>
<use data-text="2" xlink:href="#font_3_2" transform="matrix(9.9626,0,0,-9.9626,112.097,65.583)"/>
<use data-text="1" xlink:href="#font_3_1" transform="matrix(9.9626,0,0,-9.9626,117.0783,65.583)"/>
<use data-text="8" xlink:href="#font_3_6" transform="matrix(9.9626,0,0,-9.9626,122.0596,65.583)"/>
<path transform="matrix(1,0,0,-1,112.097,67.645008)" stroke-width=".558" stroke-linecap="butt" stroke-miterlimit="10" stroke-linejoin="miter" fill="none" stroke="#000000" d="M0 0H14.944"/>
<use data-text="2" xlink:href="#font_3_2" transform="matrix(9.9626,0,0,-9.9626,114.588,76.179)"/>
<use data-text="7" xlink:href="#font_3_5" transform="matrix(9.9626,0,0,-9.9626,119.5693,76.179)"/>
<path transform="matrix(1,0,0,-1,6.177,7.8279955)" d="M102.73344-70.3439H124.05377V-49.342535H102.73344Z" fill="#ffffff"/>
<use data-text="2" xlink:href="#font_3_2" transform="matrix(9.9626,0,0,-9.9626,112.097,65.583)"/>
<use data-text="1" xlink:href="#font_3_1" transform="matrix(9.9626,0,0,-9.9626,117.0783,65.583)"/>
<use data-text="8" xlink:href="#font_3_6" transform="matrix(9.9626,0,0,-9.9626,122.0596,65.583)"/>
<path transform="matrix(1,0,0,-1,112.097,67.645008)" stroke-width=".558" stroke-linecap="butt" stroke-miterlimit="10" stroke-linejoin="miter" fill="none" stroke="#000000" d="M0 0H14.944"/>
<use data-text="2" xlink:href="#font_3_2" transform="matrix(9.9626,0,0,-9.9626,114.588,76.179)"/>
<use data-text="7" xlink:href="#font_3_5" transform="matrix(9.9626,0,0,-9.9626,119.5693,76.179)"/>
<path transform="matrix(1,0,0,-1,6.177,7.8279955)" stroke-width=".3985" stroke-linecap="butt" stroke-miterlimit="10" stroke-linejoin="miter" fill="none" stroke="#000000" d="M63.90657-82.73141 96.76768-67.53255"/>
<path transform="matrix(.9076,-.41977,-.41977,-.9076,102.94467,75.36056)" d="M2.39102 0C1.39476 .19925-.3985 .59775-1.59401 1.49438-.59775 .3985-.59775-.3985-1.59401-1.49438-.3985-.59775 1.39476-.19925 2.39102 0Z"/>
<path transform="matrix(1,0,0,-1,6.177,7.8279955)" d="M169.38591-98.06912H193.47371V-77.06775H169.38591Z" fill="#ffffff"/>
<use data-text="&#x2212;" xlink:href="#font_2_1" transform="matrix(9.9626,0,0,-9.9626,178.74901,93.30799)"/>
<use data-text="1" xlink:href="#font_3_1" transform="matrix(9.9626,0,0,-9.9626,186.49991,93.30799)"/>
<use data-text="7" xlink:href="#font_3_5" transform="matrix(9.9626,0,0,-9.9626,191.4812,93.30799)"/>
<path transform="matrix(1,0,0,-1,178.74901,95.369998)" stroke-width=".558" stroke-linecap="butt" stroke-miterlimit="10" stroke-linejoin="miter" fill="none" stroke="#000000" d="M0 0H17.711"/>
<use data-text="4" xlink:href="#font_3_4" transform="matrix(9.9626,0,0,-9.9626,185.11402,103.90399)"/>
<path transform="matrix(1,0,0,-1,6.177,7.8279955)" d="M169.38591-98.06912H193.47371V-77.06775H169.38591Z" fill="#ffffff"/>
<use data-text="&#x2212;" xlink:href="#font_2_1" transform="matrix(9.9626,0,0,-9.9626,178.74901,93.30799)"/>
<use data-text="1" xlink:href="#font_3_1" transform="matrix(9.9626,0,0,-9.9626,186.49991,93.30799)"/>
<use data-text="7" xlink:href="#font_3_5" transform="matrix(9.9626,0,0,-9.9626,191.4812,93.30799)"/>
<path transform="matrix(1,0,0,-1,178.74901,95.369998)" stroke-width=".558" stroke-linecap="butt" stroke-miterlimit="10" stroke-linejoin="miter" fill="none" stroke="#000000" d="M0 0H17.711"/>
<use data-text="4" xlink:href="#font_3_4" transform="matrix(9.9626,0,0,-9.9626,185.11402,103.90399)"/>
<path transform="matrix(1,0,0,-1,6.177,7.8279955)" stroke-width=".3985" stroke-linecap="butt" stroke-miterlimit="10" stroke-linejoin="miter" fill="none" stroke="#000000" d="M127.89801-65.7521 163.34313-80.20284"/>
<path transform="matrix(.92596,.37749,.37749,-.92596,169.52011,88.030818)" d="M2.39102 0C1.39476 .19925-.3985 .59775-1.59401 1.49438-.59775 .3985-.59775-.3985-1.59401-1.49438-.3985-.59775 1.39476-.19925 2.39102 0Z"/>
<path transform="matrix(1,0,0,-1,6.177,7.8279955)" d="M234.83737-62.6925H264.09458V-49.34252H234.83737Z" fill="#ffffff"/>
<use data-text="+" xlink:href="#font_4_1" transform="matrix(14.3462,0,0,-14.3462,243.004,67.43199)"/>
<use data-text="&#x221e;" xlink:href="#font_2_3" transform="matrix(14.3462,0,0,-14.3462,253.9358,67.43199)"/>
<path transform="matrix(1,0,0,-1,6.177,7.8279955)" d="M234.83737-62.6925H264.09458V-49.34252H234.83737Z" fill="#ffffff"/>
<use data-text="+" xlink:href="#font_4_1" transform="matrix(14.3462,0,0,-14.3462,243.004,67.43199)"/>
<use data-text="&#x221e;" xlink:href="#font_2_3" transform="matrix(14.3462,0,0,-14.3462,253.9358,67.43199)"/>
<path transform="matrix(1,0,0,-1,6.177,7.8279955)" stroke-width=".3985" stroke-linecap="butt" stroke-miterlimit="10" stroke-linejoin="miter" fill="none" stroke="#000000" d="M197.284-80.22926 228.8807-65.5691"/>
<path transform="matrix(.9071,-.42085,-.42085,-.9071,235.05771,73.39712)" d="M2.39102 0C1.39476 .19925-.3985 .59775-1.59401 1.49438-.59775 .3985-.59775-.3985-1.59401-1.49438-.3985-.59775 1.39476-.19925 2.39102 0Z"/>
</svg>
